<svg version="1.1" id="Layer_1" xmlns="http://www.w3.org/2000/svg" xmlns:xlink="http://www.w3.org/1999/xlink" x="0px" y="0px"
	 width="100%" viewBox="0 0 365 202" enable-background="new 0 0 365 202" xml:space="preserve">
<path fill="#F6F6F4" opacity="1.000000" stroke="none" 
	d="
M115.218063,40.002670 
	C118.092072,39.689476 120.999039,39.542786 123.824295,38.983383 
	C124.999397,38.750713 126.000183,37.637684 127.400673,36.664169 
	C128.085007,36.573734 128.448914,36.744110 128.812820,36.914482 
	C128.871979,36.775135 128.970612,36.639660 128.984695,36.495895 
	C130.001694,26.122391 131.024368,28.300320 139.400848,27.991737 
	C143.268875,27.849241 147.127380,27.448572 150.990204,27.164955 
	C151.552429,23.044018 152.114655,18.923079 152.749664,14.268747 
	C156.349869,14.268747 160.408936,14.268747 164.617584,14.268747 
	C165.019226,9.776014 165.379318,5.748035 165.369705,1.360028 
	C165.444443,1.000000 165.888901,1.000000 166.694550,1.428934 
	C166.724442,5.444948 166.393112,9.032029 166.061783,12.619110 
	C166.821777,12.893126 167.581772,13.167144 168.341782,13.441160 
	C170.561188,9.294106 172.780594,5.147054 175.000000,1.000000 
	C183.687561,1.000000 192.375137,1.000000 201.546478,1.455744 
	C202.359192,5.918859 202.688126,9.926230 203.097824,14.308393 
	C203.642517,15.084961 204.090149,15.814422 204.572891,15.838448 
	C210.152405,16.116146 214.328751,17.606272 213.427963,24.571573 
	C213.291077,25.629995 214.450836,26.856102 215.235077,28.012825 
	C215.459305,28.021004 215.907578,28.042488 215.926910,28.497448 
	C215.967667,32.301445 215.989105,35.650482 215.546570,38.999748 
	C211.051865,39.003212 207.021133,39.006443 202.993866,38.545734 
	C202.994186,35.418716 203.219315,32.726044 202.879623,30.106611 
	C202.736542,29.003338 201.559647,27.368021 200.583252,27.142822 
	C191.641708,25.080511 189.246323,27.314056 191.111069,36.061275 
	C191.361374,37.235352 193.242874,38.683174 194.541962,38.883667 
	C197.304260,39.309978 200.180359,38.998966 203.007156,39.456062 
	C203.001587,41.405621 202.984879,42.889420 202.998062,44.372955 
	C203.073013,52.812481 202.022110,51.771255 210.699829,52.086777 
	C214.696686,52.232101 216.527496,51.155159 216.046814,46.896156 
	C215.752884,44.292015 215.997742,41.627064 216.460922,39.015335 
	C220.627045,39.102997 224.332870,39.164753 228.026230,39.405396 
	C228.013763,39.584286 227.995697,39.942474 227.999374,40.417824 
	C227.994537,48.922813 227.986038,56.952450 227.648041,64.980942 
	C226.879227,64.984894 226.439926,64.989990 225.531891,64.990448 
	C214.375458,64.990044 203.687729,64.994255 192.587952,65.012009 
	C188.196762,66.215439 190.091354,69.529305 190.162018,71.734207 
	C190.293961,75.851822 189.005707,77.268738 184.801895,77.100189 
	C177.983994,76.826836 177.972229,77.075409 177.994431,84.165627 
	C177.998077,85.329132 177.761398,86.583885 178.122467,87.628181 
	C178.431732,88.522652 179.311920,89.630798 180.156021,89.865211 
	C187.982300,92.038719 190.878311,89.857887 190.990356,81.908203 
	C190.992706,81.741951 191.012100,81.572617 190.988449,81.409821 
	C190.463272,77.795471 192.213531,76.850861 195.580811,76.956924 
	C202.059082,77.160965 208.548340,77.015823 215.033051,77.015770 
	C227.954987,77.015663 227.954987,77.015739 228.004944,90.456917 
	C227.998901,111.605362 227.996368,132.283829 227.525696,152.974030 
	C219.055908,152.972412 211.054230,152.959045 203.037354,152.480652 
	C203.014252,136.855179 203.061157,121.694191 202.912109,106.535133 
	C202.897522,105.049896 202.010284,102.613052 200.964584,102.252586 
	C193.688736,99.744514 190.098358,102.377937 190.021637,109.842461 
	C190.018219,110.175636 189.982651,110.513718 190.025269,110.841293 
	C190.461807,114.196411 188.859146,115.363823 185.684784,115.033150 
	C184.366348,114.895805 183.013260,115.107193 181.690506,114.992165 
	C178.831253,114.743500 177.748398,116.056145 177.979965,118.809822 
	C178.091248,120.133095 177.880890,121.485519 178.015762,122.804329 
	C178.415237,126.710495 176.755402,128.199097 172.830490,128.034714 
	C167.342438,127.804848 161.836502,128.040482 156.340042,127.956856 
	C153.479309,127.913338 152.151367,128.957932 151.973587,131.998077 
	C151.502106,140.060837 151.392899,140.055603 143.037766,140.011780 
	C142.038300,140.006546 141.038925,139.980438 140.026428,139.505188 
	C140.009903,137.217606 139.807983,135.362900 140.042679,133.565201 
	C140.600586,129.291901 139.166718,127.343224 134.599838,127.915092 
	C132.151352,128.221695 129.623016,127.890366 127.099754,127.388901 
	C127.050667,124.141792 126.908493,121.346786 127.040649,118.564812 
	C127.302628,113.050484 127.716011,107.543358 128.523010,102.028366 
	C139.985672,102.009598 139.985687,102.009598 140.012589,90.996109 
	C140.013382,90.669884 140.013580,90.343651 140.007965,90.010468 
	C140.001877,90.003517 140.011353,90.009743 140.475494,90.009171 
	C153.304184,89.968102 153.304276,89.968102 152.898468,77.403046 
	C152.893158,77.239052 152.873367,77.075523 152.891632,76.460526 
	C152.907822,72.342529 152.892685,68.675797 153.348053,65.002869 
	C156.463470,64.989243 159.123596,65.143410 161.746017,64.896805 
	C162.832397,64.794640 164.435715,64.079765 164.785751,63.226067 
	C167.537964,56.513603 164.454239,52.217258 157.451019,51.884613 
	C153.003922,51.673382 151.446198,53.134209 151.961166,57.485306 
	C152.250168,59.927307 151.966248,62.437122 151.483887,64.921082 
	C140.143356,64.938347 140.143539,64.938347 140.000946,76.014305 
	C139.996735,76.341393 139.979767,76.668312 139.981720,76.998917 
	C139.994705,77.002510 139.993546,76.971519 139.525665,76.992096 
	C131.063812,77.041656 123.069832,77.070648 114.614288,77.070953 
	C110.186829,76.144226 105.586281,78.989212 102.143471,75.006050 
	C102.143471,67.591553 102.143471,60.177055 102.143471,51.766495 
	C106.346405,51.766495 110.541313,51.766495 115.317703,51.321823 
	C120.300369,49.096317 118.955956,45.234287 118.779114,42.038342 
	C118.738052,41.296375 116.464417,40.677944 115.218063,40.002670 
z"/>
<path fill="#C1D4D1" opacity="1.000000" stroke="none" 
	d="
M366.000000,152.531342 
	C362.446838,153.000000 358.893677,153.000000 354.792480,153.000000 
	C354.792480,157.101837 354.792480,160.811081 354.391418,164.221741 
	C353.988556,161.603058 354.194702,159.256409 353.903687,156.973129 
	C353.739624,155.685822 352.756561,154.502914 352.142395,153.273010 
	C350.916962,153.924210 349.613281,154.463089 348.482819,155.250610 
	C346.310577,156.763916 344.236481,158.418137 342.075562,159.578705 
	C342.000763,157.113495 341.972046,155.083481 341.963409,152.585266 
	C341.989227,149.464233 341.828674,146.797928 342.042542,144.161972 
	C342.314972,140.804031 340.836090,139.887970 337.682556,139.962433 
	C330.391144,140.134628 323.092987,140.019928 315.797546,140.020264 
	C303.720673,140.020844 303.720673,140.020432 304.567383,127.934204 
	C307.178101,127.961304 309.356445,127.808952 311.500671,128.013794 
	C315.568695,128.402374 317.229980,126.856216 317.052124,122.635933 
	C316.765137,115.825790 316.905243,108.997665 317.333923,102.129189 
	C318.300110,102.061546 318.797211,102.029510 319.294556,102.023987 
	C328.519196,101.921570 328.662170,101.917885 328.944580,111.217712 
	C329.042267,114.435257 330.396484,115.092377 333.201202,115.044006 
	C340.498199,114.918144 347.798584,114.986420 355.097595,114.977249 
	C358.427826,114.993576 361.758026,115.009895 365.544128,115.013107 
	C366.000000,127.354225 366.000000,139.708450 366.000000,152.531342 
z"/>
<path fill="#7FACAE" opacity="1.000000" stroke="none" 
	d="
M304.055115,178.143997 
	C304.055115,182.253922 304.055115,186.363846 304.055115,190.983246 
	C293.371490,190.983246 283.139099,190.982941 272.906708,190.983368 
	C265.991882,190.983643 265.991730,190.984100 265.995514,198.100143 
	C265.996216,199.427109 265.998657,200.754059 266.000122,202.540512 
	C257.979095,203.000000 249.958191,203.000000 241.468643,203.000000 
	C240.995483,199.337021 240.990967,195.674026 241.016846,191.483261 
	C241.047256,190.955475 241.200378,190.802856 241.645905,190.881897 
	C246.901505,190.970566 251.711578,190.982590 256.521637,190.989365 
	C265.681732,191.002274 265.838165,191.002655 265.929962,182.123093 
	C265.964844,178.746964 267.231659,177.904251 270.353455,177.956589 
	C279.474335,178.109558 288.599976,178.073364 297.722198,177.971893 
	C299.822021,177.948532 301.915619,177.367477 304.019867,177.318420 
	C304.036804,177.777176 304.045959,177.960587 304.055115,178.143997 
z"/>
<path fill="#9DCBCF" opacity="1.000000" stroke="none" 
	d="
M1.000000,128.454102 
	C9.242602,127.915932 17.485205,127.831863 26.182745,127.374542 
	C26.637682,127.001289 27.040512,126.976761 27.375259,126.926041 
	C30.807095,123.583328 33.904186,120.291336 37.274998,117.270462 
	C38.517490,124.142929 37.790600,125.371872 30.672951,128.038742 
	C32.290894,130.404007 33.888863,132.539703 35.254658,134.814789 
	C36.027023,136.101334 36.417889,137.616882 36.513165,139.025879 
	C31.915775,139.023514 27.781940,139.139435 23.656675,139.000641 
	C16.101780,138.746460 8.551945,138.341873 1.000000,138.000000 
	C1.000000,134.969406 1.000000,131.938812 1.000000,128.454102 
z"/>
<path fill="#8ABBD2" opacity="1.000000" stroke="none" 
	d="
M1.000000,138.375000 
	C8.551945,138.341873 16.101780,138.746460 23.656675,139.000641 
	C27.781940,139.139435 31.915775,139.023514 36.513542,139.292465 
	C36.979790,139.740463 36.978241,139.918442 36.976688,140.096436 
	C33.382149,140.370468 29.787260,140.876846 26.193142,140.871414 
	C18.063766,140.859131 9.934770,140.594254 1.402810,140.716064 
	C1.000000,140.250000 1.000000,139.500000 1.000000,138.375000 
z"/>
<path fill="#F2F0DB" opacity="1.000000" stroke="none" 
	d="
M174.555832,1.000000 
	C172.780594,5.147054 170.561188,9.294106 168.341782,13.441160 
	C167.581772,13.167144 166.821777,12.893126 166.061783,12.619110 
	C166.393112,9.032029 166.724442,5.444948 167.027893,1.428934 
	C169.370560,1.000000 171.741104,1.000000 174.555832,1.000000 
z"/>
<path fill="#F6F6F4" opacity="1.000000" stroke="none" 
	d="
M54.979424,90.218399 
	C57.649227,90.147812 60.319027,90.077225 63.749260,89.714920 
	C65.100731,85.702301 64.442253,80.342606 66.610092,78.689697 
	C69.123512,76.773285 74.119644,78.112999 78.270576,78.295151 
	C79.993668,78.375809 81.484222,78.200569 83.395416,78.013000 
	C85.218506,78.011719 86.620972,78.022781 88.264526,78.323975 
	C92.760048,80.413849 96.979607,81.470078 101.287704,78.313431 
	C102.016670,82.243797 101.173157,87.339996 103.223190,89.139145 
	C105.401634,91.050987 110.323547,89.836769 114.038277,90.446007 
	C114.320038,94.643494 114.610992,98.382576 114.926689,102.578049 
	C114.957130,111.344460 114.962830,119.654488 114.961388,128.425415 
	C114.938087,132.241043 114.921936,135.595764 114.542274,139.145050 
	C110.055771,139.564896 105.935303,139.900620 101.809303,139.995560 
	C87.053978,140.335175 89.158524,137.579865 89.026901,153.030640 
	C88.998299,153.015808 89.047256,153.060287 88.582199,153.038559 
	C84.405144,153.018234 80.693138,153.019638 76.989731,153.012390 
	C76.998337,153.003723 76.983101,153.014206 76.994110,152.547699 
	C77.004402,149.445862 76.839912,146.797729 77.044350,144.178421 
	C77.300957,140.890884 75.925156,139.880829 72.748726,139.961502 
	C65.835480,140.137085 58.914585,140.011032 51.991280,139.539139 
	C51.988247,131.378235 51.990753,123.686455 52.295185,115.704575 
	C53.391212,107.015770 54.185318,98.617081 54.979424,90.218399 
z"/>
<path fill="#BFD3D1" opacity="1.000000" stroke="none" 
	d="
M51.993263,115.994682 
	C51.990753,123.686455 51.988247,131.378235 51.986824,139.801987 
	C51.980228,140.709137 51.972553,140.884293 51.503895,141.040009 
	C47.016521,141.020096 42.990128,141.019592 38.963737,141.019089 
	C38.963737,141.019089 39.008228,141.016144 39.007164,140.559692 
	C39.027275,131.786331 39.048443,123.469429 39.069611,115.152527 
	C42.840992,115.152527 46.612373,115.152527 51.245636,115.152527 
	C51.245636,107.394814 51.245636,99.906906 51.640312,92.631058 
	C52.021080,100.560318 52.007172,108.277496 51.993263,115.994682 
z"/>
<path fill="#C2D4D2" opacity="1.000000" stroke="none" 
	d="
M88.023438,78.033844 
	C86.620972,78.022781 85.218506,78.011719 82.984184,78.004456 
	C80.780899,78.018593 79.409477,78.028923 78.038048,78.039261 
	C74.119644,78.112999 69.123512,76.773285 66.610092,78.689697 
	C64.442253,80.342606 65.100731,85.702301 64.191612,89.689201 
	C63.873531,85.847641 63.873531,81.740097 63.873531,77.000671 
	C75.206207,77.000671 86.200447,77.046150 97.193443,76.950272 
	C98.790985,76.936333 100.382622,76.246162 102.060226,75.437485 
	C105.586281,78.989212 110.186829,76.144226 114.586517,77.520432 
	C114.696022,81.994942 114.371742,85.991272 114.047470,89.987602 
	C110.323547,89.836769 105.401634,91.050987 103.223190,89.139145 
	C101.173157,87.339996 102.016670,82.243797 100.826096,78.300888 
	C96.051178,78.013702 92.037308,78.023773 88.023438,78.033844 
z"/>
<path fill="#97C4C9" opacity="1.000000" stroke="none" 
	d="
M38.601402,115.091385 
	C39.048443,123.469429 39.027275,131.786331 38.990643,140.574890 
	C38.402260,140.905121 37.829342,140.763687 37.116554,140.359344 
	C36.978241,139.918442 36.979790,139.740463 36.980961,139.295898 
	C36.417889,137.616882 36.027023,136.101334 35.254658,134.814789 
	C33.888863,132.539703 32.290894,130.404007 30.672951,128.038742 
	C37.790600,125.371872 38.517490,124.142929 36.979244,116.986404 
	C26.989876,115.124512 26.989338,115.124512 27.013975,124.481880 
	C27.016165,125.313522 27.031357,126.145134 27.040512,126.976761 
	C27.040512,126.976761 26.637682,127.001289 26.435947,127.006012 
	C26.234215,123.214287 26.234215,119.417831 26.234215,115.030243 
	C30.264532,115.030243 34.198864,115.030243 38.601402,115.091385 
z"/>
<path fill="#F6FDFA" opacity="1.000000" stroke="none" 
	d="
M150.526733,27.089153 
	C147.127380,27.448572 143.268875,27.849241 139.400848,27.991737 
	C131.024368,28.300320 130.001694,26.122391 128.984695,36.495895 
	C128.970612,36.639660 128.871979,36.775135 128.812820,36.914482 
	C128.448914,36.744110 128.085007,36.573734 127.501747,36.233391 
	C127.232033,34.957054 127.181679,33.850689 127.432465,32.074669 
	C127.811844,30.004782 127.890091,28.604548 127.968330,27.204315 
	C135.333313,27.140661 142.698303,27.077005 150.526733,27.089153 
z"/>
<path fill="#F3F4E2" opacity="1.000000" stroke="none" 
	d="
M115.124298,40.452618 
	C116.464417,40.677944 118.738052,41.296375 118.779114,42.038342 
	C118.955956,45.234287 120.300369,49.096317 115.537933,50.934753 
	C115.127968,47.629086 115.079254,44.265827 115.124298,40.452618 
z"/>
<path fill="#F6FDFA" opacity="1.000000" stroke="none" 
	d="
M52.295185,115.704575 
	C52.007172,108.277496 52.021080,100.560318 51.988625,92.369827 
	C51.942257,91.896523 52.002262,91.422112 52.253490,91.110519 
	C52.735050,90.658958 52.894260,90.461609 52.982346,90.206879 
	C53.427929,90.164795 53.873508,90.122711 54.649258,90.149506 
	C54.185318,98.617081 53.391212,107.015770 52.295185,115.704575 
z"/>
<path fill="#F6F6F4" opacity="1.000000" stroke="none" 
	d="
M127.602890,27.301788 
	C127.890091,28.604548 127.811844,30.004782 127.507690,31.665981 
	C127.266998,30.417719 127.252220,28.908489 127.602890,27.301788 
z"/>
<path fill="#F6F6F4" opacity="1.000000" stroke="none" 
	d="
M52.723949,90.138885 
	C52.894260,90.461609 52.735050,90.658958 52.331581,90.884537 
	C52.260815,90.670395 52.363182,90.370644 52.723949,90.138885 
z"/>
<path fill="#F6F6F4" opacity="1.000000" stroke="none" 
	d="
M253.036560,27.224701 
	C253.477005,30.993900 253.917435,34.763096 254.435760,39.198845 
	C257.966370,39.198845 261.722839,39.198845 265.235016,39.611778 
	C263.880371,40.101616 262.770020,40.178524 261.693054,40.253124 
	C261.551331,42.099087 260.971008,43.816986 261.417572,45.204361 
	C262.094543,47.307507 261.562439,50.982929 265.786102,50.014999 
	C265.982452,50.645390 266.178833,51.275776 266.799774,52.425865 
	C269.420044,53.297222 271.629242,54.003666 273.808319,53.920467 
	C277.409332,53.782986 279.672729,54.473351 279.021881,58.775440 
	C278.370422,63.081490 280.665131,64.470795 284.584320,63.996548 
	C288.695374,63.499077 290.242065,65.255692 290.116760,69.399872 
	C290.050903,71.578285 291.160095,73.792221 291.903809,76.231567 
	C292.386749,76.694901 292.704559,76.916779 293.115326,77.273155 
	C293.208282,77.407646 293.648102,77.479652 293.648102,77.479652 
	C293.648102,77.479652 293.984406,77.145645 294.360870,77.116791 
	C295.490753,77.117065 296.244171,77.146187 297.008545,77.547928 
	C297.009979,80.321609 296.701416,82.769669 297.069489,85.111382 
	C297.493256,87.807396 297.697235,91.403831 299.448425,92.843956 
	C303.026245,95.786324 303.093323,99.394455 300.939514,101.815987 
	C298.925079,104.080803 294.929291,105.359566 291.588196,102.056870 
	C291.378662,102.071930 290.960022,102.036743 290.975952,101.570312 
	C291.002014,99.272797 290.828522,97.418221 291.059082,95.615326 
	C291.599457,91.389732 290.269958,89.499352 285.643372,89.900459 
	C281.017029,90.301552 276.313904,89.756783 271.671936,90.054726 
	C267.272156,90.337128 265.476410,88.664192 265.995636,84.309616 
	C266.152130,82.996979 266.419189,81.457764 265.904907,80.366753 
	C265.288513,79.059052 264.063873,77.770950 262.776276,77.129555 
	C261.708069,76.597450 260.150360,77.148064 258.838165,76.986458 
	C255.237061,76.542976 253.644928,77.776031 253.914444,81.657707 
	C254.213486,85.965103 253.971970,90.309349 253.984268,94.637489 
	C254.007507,102.810478 253.357590,102.221161 261.088074,101.927345 
	C265.198151,101.771118 266.149872,103.288048 266.083374,107.101784 
	C265.891907,118.084427 266.055420,129.073273 266.046387,140.037079 
	C266.013336,140.014496 266.060150,140.079529 265.591827,140.054977 
	C254.004257,139.980377 254.004379,139.980377 253.975967,150.991241 
	C253.974274,151.645676 253.968887,152.300110 253.982941,152.969116 
	C254.000626,152.983704 253.961426,152.968628 253.496597,152.974823 
	C245.029175,152.977219 237.026596,152.973434 229.017090,152.502960 
	C229.015381,131.366791 229.020584,110.697296 229.487030,90.021332 
	C241.895279,89.973633 241.992950,89.962257 240.864212,80.269218 
	C240.726105,79.083214 238.966385,77.295586 237.787155,77.147377 
	C229.029526,76.046677 229.016464,76.154701 228.989548,67.494072 
	C228.986984,66.669037 228.972443,65.844025 228.974854,64.548531 
	C228.989395,60.589035 229.120041,57.094303 228.964050,53.612411 
	C228.759674,49.050461 228.329010,44.498650 227.995697,39.942474 
	C227.995697,39.942474 228.013763,39.584286 228.083359,38.977554 
	C228.420120,34.929035 228.687286,31.487247 229.427582,28.040051 
	C237.547729,28.208097 245.194748,28.381556 252.941360,28.557274 
	C252.918777,28.873306 252.977676,28.049004 253.036560,27.224701 
z"/>
<path fill="#C3D5D0" opacity="1.000000" stroke="none" 
	d="
M140.039520,139.964005 
	C141.038925,139.980438 142.038300,140.006546 143.037766,140.011780 
	C151.392899,140.055603 151.502106,140.060837 151.973587,131.998077 
	C152.151367,128.957932 153.479309,127.913338 156.340042,127.956856 
	C161.836502,128.040482 167.342438,127.804848 172.830490,128.034714 
	C176.755402,128.199097 178.415237,126.710495 178.015762,122.804329 
	C177.880890,121.485519 178.091248,120.133095 177.979965,118.809822 
	C177.748398,116.056145 178.831253,114.743500 181.690506,114.992165 
	C183.013260,115.107193 184.366348,114.895805 185.684784,115.033150 
	C188.859146,115.363823 190.461807,114.196411 190.025269,110.841293 
	C189.982651,110.513718 190.018219,110.175636 190.021637,109.842461 
	C190.098358,102.377937 193.688736,99.744514 200.964584,102.252586 
	C202.010284,102.613052 202.897522,105.049896 202.912109,106.535133 
	C203.061157,121.694191 203.014252,136.855179 203.008972,152.509521 
	C202.995789,153.003403 202.938736,153.060822 202.483200,153.039963 
	C198.710892,152.901825 194.394257,153.986572 192.376236,152.307953 
	C190.583450,150.816696 191.469574,146.236801 190.900253,143.069290 
	C190.708237,142.001007 189.878128,140.480377 189.001709,140.191406 
	C181.664169,137.772079 178.088943,140.373871 177.995499,147.958954 
	C177.993439,148.125443 177.975571,148.294510 177.997360,148.458084 
	C178.452866,151.877731 177.092072,153.143509 173.540405,153.070923 
	C163.720886,152.870239 153.893600,152.922440 144.071579,153.046783 
	C141.118042,153.084167 139.774948,152.201370 139.963593,149.072174 
	C140.143448,146.088745 139.943283,143.082397 139.942413,140.055496 
	C139.974655,140.024857 140.039520,139.964005 140.039520,139.964005 
z"/>
<path fill="#C5D5CE" opacity="1.000000" stroke="none" 
	d="
M228.963455,65.019005 
	C228.972443,65.844025 228.986984,66.669037 228.989548,67.494072 
	C229.016464,76.154701 229.029526,76.046677 237.787155,77.147377 
	C238.966385,77.295586 240.726105,79.083214 240.864212,80.269218 
	C241.992950,89.962257 241.895279,89.973633 229.232620,90.009109 
	C228.347473,89.997894 228.177963,89.992416 228.008438,89.986938 
	C227.954987,77.015739 227.954987,77.015663 215.033051,77.015770 
	C208.548340,77.015823 202.059082,77.160965 195.580811,76.956924 
	C192.213531,76.850861 190.463272,77.795471 190.988449,81.409821 
	C191.012100,81.572617 190.992706,81.741951 190.990356,81.908203 
	C190.878311,89.857887 187.982300,92.038719 180.156021,89.865211 
	C179.311920,89.630798 178.431732,88.522652 178.122467,87.628181 
	C177.761398,86.583885 177.998077,85.329132 177.994431,84.165627 
	C177.972229,77.075409 177.983994,76.826836 184.801895,77.100189 
	C189.005707,77.268738 190.293961,75.851822 190.162018,71.734207 
	C190.091354,69.529305 188.196762,66.215439 192.595520,65.394119 
	C193.284714,66.878151 193.988129,68.096558 193.751907,69.091965 
	C192.434082,74.644928 195.721848,75.098160 199.848007,75.024857 
	C205.462067,74.925125 211.079239,75.000343 216.695068,74.999924 
	C224.486008,74.999336 224.501495,74.998138 225.911835,67.467346 
	C226.061951,66.665833 225.976669,65.820229 226.000610,64.995079 
	C226.439926,64.989990 226.879227,64.984894 227.894623,64.991302 
	C228.470688,65.002808 228.963455,65.019005 228.963455,65.019005 
z"/>
<path fill="#9BC8CA" opacity="1.000000" stroke="none" 
	d="
M114.038269,90.446007 
	C114.371742,85.991272 114.696022,81.994942 115.048073,77.549126 
	C123.069832,77.070648 131.063812,77.041656 139.526337,77.458344 
	C140.000366,81.939262 140.005859,85.974503 140.011353,90.009743 
	C140.011353,90.009743 140.001877,90.003517 139.541290,90.003571 
	C127.028091,89.994324 127.028091,89.994324 126.551445,102.009048 
	C122.360252,102.050438 118.631104,102.086052 114.901947,102.121658 
	C114.610992,98.382576 114.320038,94.643494 114.038269,90.446007 
z"/>
<path fill="#C3D5D0" opacity="1.000000" stroke="none" 
	d="
M203.024170,152.974548 
	C211.054230,152.959045 219.055908,152.972412 227.526978,152.991150 
	C227.996368,152.996521 227.993896,153.028503 227.995850,153.488022 
	C227.995651,157.922440 227.993484,161.897354 227.524292,165.903015 
	C219.712082,165.933060 212.366913,165.932327 204.966751,165.623917 
	C204.282089,164.874527 203.652435,164.432800 203.016312,163.534058 
	C202.986145,159.738297 202.962448,156.399551 202.938736,153.060822 
	C202.938736,153.060822 202.995789,153.003403 203.024170,152.974548 
z"/>
<path fill="#C3D5D0" opacity="1.000000" stroke="none" 
	d="
M225.531891,64.990448 
	C225.976669,65.820229 226.061951,66.665833 225.911835,67.467346 
	C224.501495,74.998138 224.486008,74.999336 216.695068,74.999924 
	C211.079239,75.000343 205.462067,74.925125 199.848007,75.024857 
	C195.721848,75.098160 192.434082,74.644928 193.751907,69.091965 
	C193.988129,68.096558 193.284714,66.878151 193.007568,65.380592 
	C203.687729,64.994255 214.375458,64.990044 225.531891,64.990448 
z"/>
<path fill="#C3D5D0" opacity="1.000000" stroke="none" 
	d="
M114.926697,102.578049 
	C118.631104,102.086052 122.360252,102.050438 126.814804,102.012932 
	C127.715736,102.018440 127.891273,102.025841 128.066818,102.033249 
	C127.716011,107.543358 127.302628,113.050484 127.040649,118.564812 
	C126.908493,121.346786 127.050667,124.141792 127.068573,127.426437 
	C127.068359,127.921982 127.003929,127.995277 126.542709,127.989319 
	C122.377167,127.977074 118.672844,127.970795 114.968529,127.964508 
	C114.962830,119.654488 114.957130,111.344460 114.926697,102.578049 
z"/>
<path fill="#C6D6CF" opacity="1.000000" stroke="none" 
	d="
M151.940460,64.916382 
	C151.966248,62.437122 152.250168,59.927307 151.961166,57.485306 
	C151.446198,53.134209 153.003922,51.673382 157.451019,51.884613 
	C164.454239,52.217258 167.537964,56.513603 164.785751,63.226067 
	C164.435715,64.079765 162.832397,64.794640 161.746017,64.896805 
	C159.123596,65.143410 156.463470,64.989243 153.112854,64.995331 
	C152.407150,64.993988 151.940460,64.916382 151.940460,64.916382 
z"/>
<path fill="#BFD4CE" opacity="1.000000" stroke="none" 
	d="
M140.475479,90.009171 
	C140.005859,85.974503 140.000366,81.939262 139.994202,77.437775 
	C139.993546,76.971519 139.994705,77.002510 140.447723,77.002197 
	C144.887283,76.971855 148.873810,76.941818 152.860321,76.911781 
	C152.873367,77.075523 152.893158,77.239052 152.898468,77.403046 
	C153.304276,89.968102 153.304184,89.968102 140.475479,90.009171 
z"/>
<path fill="#C4D5CF" opacity="1.000000" stroke="none" 
	d="
M202.990387,39.009678 
	C207.021133,39.006443 211.051865,39.003212 215.541077,39.000168 
	C215.999542,39.000359 216.000610,38.989426 216.000610,38.989426 
	C215.997742,41.627064 215.752884,44.292015 216.046814,46.896156 
	C216.527496,51.155159 214.696686,52.232101 210.699829,52.086777 
	C202.022110,51.771255 203.073013,52.812481 202.998062,44.372955 
	C202.984879,42.889420 203.001587,41.405621 203.002258,39.460949 
	C203.000000,38.999954 202.990387,39.009678 202.990387,39.009678 
z"/>
<path fill="#9DC8C8" opacity="1.000000" stroke="none" 
	d="
M152.891647,76.460526 
	C148.873810,76.941818 144.887283,76.971855 140.434753,76.998604 
	C139.979767,76.668312 139.996735,76.341393 140.000946,76.014305 
	C140.143539,64.938347 140.143356,64.938347 151.483887,64.921082 
	C151.940460,64.916382 152.407150,64.993988 152.642349,65.001526 
	C152.892685,68.675797 152.907822,72.342529 152.891647,76.460526 
z"/>
<path fill="#C2D5CF" opacity="1.000000" stroke="none" 
	d="
M127.099533,127.884445 
	C129.623016,127.890366 132.151352,128.221695 134.599838,127.915092 
	C139.166718,127.343224 140.600586,129.291901 140.042679,133.565201 
	C139.807983,135.362900 140.009903,137.217606 140.026428,139.505188 
	C140.039520,139.964005 139.974655,140.024857 139.487915,140.032288 
	C127.051544,139.962845 127.051544,139.962845 127.003929,127.995277 
	C127.003929,127.995277 127.068359,127.921982 127.099533,127.884445 
z"/>
<path fill="#C2D5CF" opacity="1.000000" stroke="none" 
	d="
M128.523010,102.028366 
	C127.891273,102.025841 127.715736,102.018440 127.276840,102.007156 
	C127.028091,89.994324 127.028091,89.994324 139.547379,90.010529 
	C140.013580,90.343651 140.013382,90.669884 140.012589,90.996109 
	C139.985687,102.009598 139.985672,102.009598 128.523010,102.028366 
z"/>
<path fill="#9DC7CA" opacity="1.000000" stroke="none" 
	d="
M228.954453,28.045462 
	C228.687286,31.487247 228.420120,34.929035 228.095825,38.798664 
	C224.332870,39.164753 220.627045,39.102997 216.460907,39.015335 
	C216.000610,38.989426 215.999542,39.000359 216.005035,38.999939 
	C215.989105,35.650482 215.967667,32.301445 215.973175,28.213858 
	C216.022415,27.285412 216.044693,27.095520 216.066971,26.905626 
	C219.776321,26.942593 223.485672,26.979559 227.740311,27.275936 
	C228.438324,27.764950 228.639832,27.937634 228.907623,28.060015 
	C228.925125,28.066628 228.954453,28.045462 228.954453,28.045462 
z"/>
<path fill="#C4D5CF" opacity="1.000000" stroke="none" 
	d="
M203.004913,38.995064 
	C200.180359,38.998966 197.304260,39.309978 194.541962,38.883667 
	C193.242874,38.683174 191.361374,37.235352 191.111069,36.061275 
	C189.246323,27.314056 191.641708,25.080511 200.583252,27.142822 
	C201.559647,27.368021 202.736542,29.003338 202.879623,30.106611 
	C203.219315,32.726044 202.994186,35.418716 202.993866,38.545734 
	C202.990387,39.009678 203.000000,38.999954 203.004913,38.995064 
z"/>
<path fill="#DDDAC9" opacity="1.000000" stroke="none" 
	d="
M228.004944,90.456917 
	C228.177963,89.992416 228.347473,89.997894 228.771378,90.015587 
	C229.020584,110.697296 229.015381,131.366791 228.759399,152.517242 
	C228.337036,153.008316 228.165466,153.018417 227.993896,153.028503 
	C227.993896,153.028503 227.996368,152.996521 227.995087,152.979401 
	C227.996368,132.283829 227.998901,111.605362 228.004944,90.456917 
z"/>
<path fill="#F6F7EB" opacity="1.000000" stroke="none" 
	d="
M207.979446,14.187287 
	C210.019608,14.134502 212.059753,14.081715 214.534851,14.564795 
	C214.983459,19.401989 214.997147,23.703320 215.010834,28.004646 
	C214.450836,26.856102 213.291077,25.629995 213.427963,24.571573 
	C214.328751,17.606272 210.152405,16.116146 204.572891,15.838448 
	C204.090149,15.814422 203.642517,15.084961 203.097809,14.308393 
	C203.466217,13.979045 203.915375,14.024488 204.892975,14.351789 
	C206.274094,14.484860 207.126770,14.336073 207.979446,14.187287 
z"/>
<path fill="#D2DBCE" opacity="1.000000" stroke="none" 
	d="
M228.974854,64.548531 
	C228.963455,65.019005 228.470688,65.002808 228.224121,64.992447 
	C227.986038,56.952450 227.994537,48.922813 227.999374,40.417824 
	C228.329010,44.498650 228.759674,49.050461 228.964050,53.612411 
	C229.120041,57.094303 228.989395,60.589035 228.974854,64.548531 
z"/>
<path fill="#D2DBCE" opacity="1.000000" stroke="none" 
	d="
M215.235077,28.012825 
	C214.997147,23.703320 214.983459,19.401989 214.964401,14.648499 
	C215.299255,18.130247 215.639465,22.064157 216.023315,26.451847 
	C216.044693,27.095520 216.022415,27.285412 215.953857,27.758896 
	C215.907578,28.042488 215.459305,28.021004 215.235077,28.012825 
z"/>
<path fill="#9EC5CB" opacity="1.000000" stroke="none" 
	d="
M355.028839,114.521790 
	C347.798584,114.986420 340.498199,114.918144 333.201202,115.044006 
	C330.396484,115.092377 329.042267,114.435257 328.944580,111.217712 
	C328.662170,101.917885 328.519196,101.921570 319.294556,102.023987 
	C318.797211,102.029510 318.300110,102.061546 316.884033,102.092087 
	C315.474609,102.093880 314.984070,102.079048 314.493469,102.076645 
	C304.314758,102.026779 304.314758,102.027046 303.932922,91.599678 
	C304.016235,90.814659 304.059601,90.365883 304.102997,89.917099 
	C316.520020,89.917099 328.937012,89.917099 341.792786,89.917099 
	C341.792786,93.967194 341.792786,97.697899 341.792786,102.045959 
	C344.792847,102.045959 347.406158,102.270683 349.965393,101.994301 
	C353.997345,101.558868 355.405273,103.196716 354.984894,107.105492 
	C354.738129,109.400124 354.952911,111.744400 355.028839,114.521790 
z"/>
<path fill="#A0C7D2" opacity="1.000000" stroke="none" 
	d="
M293.022369,77.138664 
	C292.704559,76.916779 292.386749,76.694901 291.978455,75.776108 
	C291.906036,73.109062 292.078766,71.125351 291.907166,69.171890 
	C291.625824,65.969345 292.890106,64.906029 296.117554,64.884125 
	C304.094696,64.829994 304.099030,64.681084 304.015869,56.591751 
	C304.004059,55.444023 303.911530,54.297123 303.894745,53.109406 
	C303.933136,53.068974 304.007324,52.993286 304.469421,52.995834 
	C305.593811,52.999683 306.256165,53.001854 306.918488,53.002167 
	C315.411896,53.006138 315.386810,53.008026 316.035156,61.316002 
	C316.106140,62.225319 316.671204,63.096081 317.007111,63.984726 
	C317.007111,63.984726 317.001221,63.998463 317.009521,64.260086 
	C317.028351,64.697342 317.038818,64.872971 317.281494,65.311775 
	C318.651703,67.100227 319.789703,68.625496 320.927704,70.150772 
	C319.380676,71.098740 317.940887,72.456688 316.260864,72.896179 
	C313.887299,73.517105 311.028412,73.049225 311.202545,76.810974 
	C309.080902,76.873665 306.959229,76.936348 304.048462,77.003677 
	C302.184296,77.065407 301.109314,77.122490 299.656281,77.124832 
	C298.518036,77.105179 297.757812,77.140251 296.997589,77.175316 
	C296.244171,77.146187 295.490753,77.117065 294.120728,77.087624 
	C293.504089,77.087311 293.022369,77.138664 293.022369,77.138664 
z"/>
<path fill="#DCE9DB" opacity="1.000000" stroke="none" 
	d="
M303.856354,53.149841 
	C303.911530,54.297123 304.004059,55.444023 304.015869,56.591751 
	C304.099030,64.681084 304.094696,64.829994 296.117554,64.884125 
	C292.890106,64.906029 291.625824,65.969345 291.907166,69.171890 
	C292.078766,71.125351 291.906036,73.109062 291.813324,75.534653 
	C291.160095,73.792221 290.050903,71.578285 290.116760,69.399872 
	C290.242065,65.255692 288.695374,63.499077 284.584320,63.996548 
	C280.665131,64.470795 278.370422,63.081490 279.021881,58.775440 
	C279.672729,54.473351 277.409332,53.782986 273.808319,53.920467 
	C271.629242,54.003666 269.420044,53.297222 267.103485,52.571945 
	C270.651337,52.137463 274.320068,52.076603 278.916107,51.988045 
	C287.847717,52.356846 295.852051,52.753342 303.856354,53.149841 
z"/>
<path fill="#9EC6D4" opacity="1.000000" stroke="none" 
	d="
M279.162537,50.999084 
	C279.162537,47.207535 279.162537,43.415981 279.162537,39.329773 
	C287.314392,39.329773 295.357452,39.329773 303.984467,39.329773 
	C303.984467,42.900673 303.984467,46.492481 303.453796,50.542278 
	C295.002899,50.999870 287.082733,50.999477 279.162537,50.999084 
z"/>
<path fill="#98C1D3" opacity="1.000000" stroke="none" 
	d="
M317.049255,65.048584 
	C317.038818,64.872971 317.028351,64.697342 317.016357,64.257904 
	C320.810333,63.994087 324.605743,63.994087 328.841797,63.994087 
	C328.841797,60.144020 328.841797,56.412952 328.841797,52.346626 
	C333.314026,52.346626 337.353210,52.346626 341.693848,52.346626 
	C341.693848,56.355461 341.693848,60.394859 341.693848,64.882706 
	C337.872101,64.882706 334.132233,64.882706 330.117584,64.882706 
	C329.975189,68.065506 329.851776,70.824524 329.359589,73.369522 
	C328.764801,64.161118 330.455078,65.086693 320.968048,65.029388 
	C319.661865,65.021500 318.355530,65.041496 317.049255,65.048584 
z"/>
<path fill="#A4CDDD" opacity="1.000000" stroke="none" 
	d="
M317.281494,65.311768 
	C318.355530,65.041496 319.661865,65.021500 320.968048,65.029388 
	C330.455078,65.086693 328.764801,64.161118 329.010559,73.614853 
	C329.481720,76.570335 328.325256,77.122360 325.995026,77.028023 
	C321.365784,76.840607 316.724152,76.960274 311.645081,76.882004 
	C311.028412,73.049225 313.887299,73.517105 316.260864,72.896179 
	C317.940887,72.456688 319.380676,71.098740 320.927704,70.150772 
	C319.789703,68.625496 318.651703,67.100227 317.281494,65.311768 
z"/>
<path fill="#F6F7EB" opacity="1.000000" stroke="none" 
	d="
M300.034302,77.179565 
	C301.109314,77.122490 302.184296,77.065407 303.662231,77.030487 
	C304.045380,81.036644 304.025635,85.020630 304.054443,89.460861 
	C304.059601,90.365883 304.016235,90.814659 303.633728,91.564888 
	C298.911957,87.702408 300.033539,82.316582 300.034302,77.179565 
z"/>
<path fill="#F3F4E2" opacity="1.000000" stroke="none" 
	d="
M265.860474,49.564552 
	C261.562439,50.982929 262.094543,47.307507 261.417572,45.204361 
	C260.971008,43.816986 261.551331,42.099087 261.693054,40.253124 
	C262.770020,40.178524 263.880371,40.101616 265.364502,40.013794 
	C265.803772,43.039951 265.869293,46.077030 265.860474,49.564552 
z"/>
<path fill="#F6FDFA" opacity="1.000000" stroke="none" 
	d="
M252.573547,27.119095 
	C252.977676,28.049004 252.918777,28.873306 252.941360,28.557274 
	C245.194748,28.381556 237.547729,28.208097 229.427582,28.040051 
	C228.954453,28.045462 228.925125,28.066628 228.953369,27.840172 
	C228.981628,27.613718 229.021301,27.167202 229.021301,27.167202 
	C236.717712,27.115965 244.414108,27.064728 252.573547,27.119095 
z"/>
<path fill="#A0C7D2" opacity="1.000000" stroke="none" 
	d="
M279.083588,51.228928 
	C287.082733,50.999477 295.002899,50.999870 303.381409,51.000694 
	C303.839752,51.001122 303.991577,51.429653 304.006439,51.933167 
	C304.016632,52.622219 304.011993,52.807751 304.007324,52.993286 
	C304.007324,52.993286 303.933136,53.068974 303.894745,53.109406 
	C295.852051,52.753342 287.847717,52.356846 279.368713,51.946213 
	C278.894012,51.932072 279.004639,51.458775 279.083588,51.228928 
z"/>
<path fill="#98C1D3" opacity="1.000000" stroke="none" 
	d="
M304.469421,52.995834 
	C304.011993,52.807751 304.016632,52.622219 304.035095,52.158665 
	C308.158997,51.880646 312.269104,51.880646 316.960876,51.880646 
	C316.960876,55.889973 316.960876,59.476238 316.984009,63.523617 
	C316.671204,63.096081 316.106140,62.225319 316.035156,61.316002 
	C315.386810,53.008026 315.411896,53.006138 306.918488,53.002167 
	C306.256165,53.001854 305.593811,52.999683 304.469421,52.995834 
z"/>
<path fill="#F6F6F4" opacity="1.000000" stroke="none" 
	d="
M207.614868,14.103455 
	C207.126770,14.336073 206.274094,14.484860 205.224228,14.425245 
	C205.768127,14.151104 206.509216,14.085363 207.614868,14.103455 
z"/>
<path fill="#D2DBCE" opacity="1.000000" stroke="none" 
	d="
M228.795227,27.104744 
	C229.021301,27.167202 228.981628,27.613718 228.935867,27.833561 
	C228.639832,27.937634 228.438324,27.764950 228.201752,27.352833 
	C228.117889,27.170319 228.569153,27.042288 228.795227,27.104744 
z"/>
<path fill="#7EABAE" opacity="1.000000" stroke="none" 
	d="
M189.918686,178.084335 
	C186.123535,178.084335 182.328384,178.084335 178.017502,178.084335 
	C178.017502,182.412720 178.017502,186.481705 178.017502,190.754868 
	C160.914001,190.754868 144.331635,190.754868 126.994957,190.754868 
	C126.994957,186.857666 126.994957,182.942780 127.014511,178.484543 
	C127.034058,177.941193 127.173058,177.775772 127.618500,177.872589 
	C129.888824,177.985764 131.714828,178.051544 133.538422,178.010620 
	C148.343567,177.678329 163.148254,177.326019 178.414795,176.986832 
	C182.595627,177.308334 186.314758,177.622833 190.005875,177.974701 
	C189.977875,178.012070 189.918686,178.084335 189.918686,178.084335 
z"/>
<path fill="#7EABAE" opacity="1.000000" stroke="none" 
	d="
M240.970413,191.031494 
	C225.956497,191.066269 211.016144,190.835144 196.084244,191.093475 
	C191.280624,191.176590 189.345123,189.795334 189.993713,184.960052 
	C190.256027,183.004440 190.023468,180.982452 189.967407,178.537506 
	C189.918686,178.084335 189.977875,178.012070 190.243805,177.993729 
	C190.509750,177.975388 190.985886,178.001480 191.455338,178.011246 
	C205.067932,178.015961 218.211075,178.000534 231.354218,178.009354 
	C240.908768,178.015778 240.903549,178.030121 241.001129,187.823441 
	C241.011032,188.817139 241.131332,189.809738 241.200378,190.802856 
	C241.200378,190.802856 241.047256,190.955475 240.970413,191.031494 
z"/>
<path fill="#80ACAD" opacity="1.000000" stroke="none" 
	d="
M77.173599,176.995956 
	C77.123482,174.952408 77.073364,172.908859 77.433243,170.350586 
	C78.228142,168.578400 78.613052,167.320923 79.450027,166.026947 
	C82.904243,165.942612 85.906395,165.894775 89.381332,165.886139 
	C98.629753,165.940475 107.405373,165.962814 116.181015,165.968979 
	C127.203613,165.976730 127.203621,165.971008 126.483788,176.996429 
	C109.736740,176.997299 93.455170,176.996628 77.173599,176.995956 
z"/>
<path fill="#7EAAAD" opacity="1.000000" stroke="none" 
	d="
M78.997971,166.063461 
	C78.613052,167.320923 78.228142,168.578400 77.506378,169.918488 
	C77.270996,166.755112 75.638771,165.795273 72.521935,165.917740 
	C67.055946,166.132492 61.563316,165.754257 56.105011,166.050797 
	C52.155861,166.265350 50.575451,164.949127 51.003510,160.965790 
	C51.250191,158.670319 51.039917,156.325714 51.007050,153.415161 
	C50.978779,152.827072 51.096592,152.584991 51.545143,152.707443 
	C60.323498,152.891327 68.653297,152.952759 76.983101,153.014191 
	C76.983101,153.014206 76.998337,153.003723 76.991974,153.472733 
	C76.984848,156.389923 76.737343,158.872101 77.068474,161.274536 
	C77.296387,162.928070 78.326431,164.471069 78.997971,166.063461 
z"/>
<path fill="#9CC8CC" opacity="1.000000" stroke="none" 
	d="
M38.980339,141.481232 
	C42.990128,141.019592 47.016521,141.020096 51.511292,141.478882 
	C51.685314,145.486435 51.390953,149.035706 51.096592,152.584991 
	C51.096592,152.584991 50.978779,152.827072 50.971123,152.961456 
	C47.168571,153.095856 43.373680,153.095856 38.996941,153.095856 
	C38.996941,149.136047 38.996941,145.539719 38.980339,141.481232 
z"/>
<path fill="#7CABBB" opacity="1.000000" stroke="none" 
	d="
M77.319702,177.400024 
	C93.455170,176.996628 109.736740,176.997299 126.526596,177.195496 
	C127.034889,177.393021 127.173058,177.775772 127.173058,177.775772 
	C127.173058,177.775772 127.034058,177.941193 126.970047,178.028229 
	C110.425964,178.011551 93.945885,177.907822 77.319702,177.400024 
z"/>
<path fill="#7CA9B0" opacity="1.000000" stroke="none" 
	d="
M304.514252,178.089645 
	C304.045959,177.960587 304.036804,177.777176 304.023743,176.852112 
	C303.983215,166.149826 303.983337,166.157364 313.749542,165.980637 
	C314.734955,165.962784 315.717438,165.783798 316.791290,165.775787 
	C316.881287,165.871994 317.061646,166.064087 317.061646,166.064087 
	C317.061646,169.839081 317.061646,173.614090 317.061646,178.035294 
	C312.783051,178.035294 308.878204,178.035294 304.514252,178.089645 
z"/>
<path fill="#C7DAD6" opacity="1.000000" stroke="none" 
	d="
M342.121674,160.013901 
	C344.236481,158.418137 346.310577,156.763916 348.482819,155.250610 
	C349.613281,154.463089 350.916962,153.924210 352.142395,153.273010 
	C352.756561,154.502914 353.739624,155.685822 353.903687,156.973129 
	C354.194702,159.256409 353.988556,161.603058 353.991455,164.368347 
	C351.284729,165.204758 348.576935,165.596039 345.203094,165.714417 
	C343.697968,165.289764 342.858917,165.137985 342.016296,164.571793 
	C342.049042,162.776230 342.085358,161.395065 342.121674,160.013901 
z"/>
<path fill="#7CA9B0" opacity="1.000000" stroke="none" 
	d="
M342.019867,164.986176 
	C342.858917,165.137985 343.697968,165.289764 344.772980,165.656662 
	C336.002045,165.910904 326.995117,165.950027 317.524933,166.026611 
	C317.061646,166.064087 316.881287,165.871994 316.872162,165.610687 
	C316.863037,165.349380 316.961121,164.992950 317.433716,164.994385 
	C325.944153,164.992615 333.982025,164.989395 342.019867,164.986176 
z"/>
<path fill="#9BC8CA" opacity="1.000000" stroke="none" 
	d="
M316.961121,164.992950 
	C316.961121,164.992950 316.863037,165.349380 316.782166,165.514481 
	C315.717438,165.783798 314.734955,165.962784 313.749542,165.980637 
	C303.983337,166.157364 303.983215,166.149826 304.015961,176.576752 
	C301.915619,177.367477 299.822021,177.948532 297.722198,177.971893 
	C288.599976,178.073364 279.474335,178.109558 270.353455,177.956589 
	C267.231659,177.904251 265.964844,178.746964 265.929962,182.123093 
	C265.838165,191.002655 265.681732,191.002274 256.521637,190.989365 
	C251.711578,190.982590 246.901505,190.970566 241.645920,190.881897 
	C241.131332,189.809738 241.011032,188.817139 241.001129,187.823441 
	C240.903549,178.030121 240.908768,178.015778 231.354218,178.009354 
	C218.211075,178.000534 205.067932,178.015961 191.444946,177.548309 
	C190.968338,175.922546 190.981323,174.769440 190.973221,173.616486 
	C190.913376,165.107788 191.890503,166.213440 183.296646,165.897385 
	C179.335068,165.751709 177.391739,166.771973 177.941879,171.055969 
	C178.191391,172.999023 177.964081,175.003311 177.953079,176.979813 
	C163.148254,177.326019 148.343567,177.678329 133.538422,178.010620 
	C131.714828,178.051544 129.888824,177.985764 127.618500,177.872589 
	C127.173058,177.775772 127.034889,177.393021 126.992081,177.193954 
	C127.203621,165.971008 127.203613,165.976730 116.181015,165.968979 
	C107.405373,165.962814 98.629753,165.940475 89.413452,165.477905 
	C88.997604,161.040405 89.022430,157.050354 89.047256,153.060287 
	C89.047256,153.060287 88.998299,153.015808 89.489502,153.020569 
	C93.768715,153.017899 97.556725,153.004684 101.344727,153.004013 
	C115.240921,153.001587 115.240921,153.003174 114.905777,138.950500 
	C114.921936,135.595764 114.938087,132.241043 114.961388,128.425415 
	C118.672844,127.970795 122.377167,127.977074 126.542709,127.989319 
	C127.051544,139.962845 127.051544,139.962845 139.455688,140.062927 
	C139.943283,143.082397 140.143448,146.088745 139.963593,149.072174 
	C139.774948,152.201370 141.118042,153.084167 144.071579,153.046783 
	C153.893600,152.922440 163.720886,152.870239 173.540405,153.070923 
	C177.092072,153.143509 178.452866,151.877731 177.997360,148.458084 
	C177.975571,148.294510 177.993439,148.125443 177.995499,147.958954 
	C178.088943,140.373871 181.664169,137.772079 189.001709,140.191406 
	C189.878128,140.480377 190.708237,142.001007 190.900253,143.069290 
	C191.469574,146.236801 190.583450,150.816696 192.376236,152.307953 
	C194.394257,153.986572 198.710892,152.901825 202.483200,153.039963 
	C202.962448,156.399551 202.986145,159.738297 203.053558,163.853577 
	C203.738770,165.063950 204.380264,165.497772 205.021759,165.931595 
	C212.366913,165.932327 219.712082,165.933060 227.993011,165.938995 
	C232.899643,165.956314 236.870514,165.977768 240.841370,165.978851 
	C254.051620,165.982452 254.051620,165.979645 253.961426,152.968628 
	C253.961426,152.968628 254.000626,152.983704 254.322372,152.985718 
	C255.096375,152.983704 255.548630,152.979675 256.458191,152.986206 
	C267.542053,152.871292 265.826904,154.343063 266.008057,143.936005 
	C266.025116,142.955490 266.019562,141.974564 266.037262,140.765411 
	C266.050018,140.536987 266.060150,140.079529 266.060150,140.079529 
	C266.060150,140.079529 266.013336,140.014496 266.502991,140.026031 
	C269.324341,140.031281 271.679382,139.812912 273.982635,140.065872 
	C277.934021,140.499863 279.243439,139.007233 279.073273,135.021744 
	C278.775116,128.039124 278.989868,121.034607 278.989929,114.039261 
	C278.989990,101.969727 278.990051,101.969727 290.960022,102.036743 
	C290.960022,102.036743 291.378662,102.071930 291.623169,102.473755 
	C291.634796,106.872841 291.401917,110.870094 291.117432,115.330345 
	C291.066010,118.239479 290.852081,120.709625 291.122955,123.125412 
	C291.430939,125.872040 292.442993,128.290558 296.426941,127.934540 
	C298.570129,127.944077 300.285187,127.928925 302.345764,127.928467 
	C303.152649,127.925919 303.614044,127.908661 304.081787,127.902573 
	C304.088165,127.913742 304.119598,127.916023 304.119598,127.916023 
	C303.720673,140.020432 303.720673,140.020844 315.797546,140.020264 
	C323.092987,140.019928 330.391144,140.134628 337.682556,139.962433 
	C340.836090,139.887970 342.314972,140.804031 342.042542,144.161972 
	C341.828674,146.797928 341.989227,149.464233 341.501099,152.566193 
	C337.070282,153.008957 333.121887,152.997849 329.173492,152.997070 
	C317.026642,152.994690 317.026642,152.996231 316.961121,164.992950 
z"/>
<path fill="#F6F6F4" opacity="1.000000" stroke="none" 
	d="
M291.169037,114.867355 
	C291.401917,110.870094 291.634796,106.872841 291.832703,102.458694 
	C294.929291,105.359566 298.925079,104.080803 300.939514,101.815987 
	C303.093323,99.394455 303.026245,95.786324 299.448425,92.843956 
	C297.697235,91.403831 297.493256,87.807396 297.069489,85.111382 
	C296.701416,82.769669 297.009979,80.321609 297.008545,77.547928 
	C297.757812,77.140251 298.518036,77.105179 299.656281,77.124832 
	C300.033539,82.316582 298.911957,87.702408 303.593811,91.901123 
	C304.314758,102.027046 304.314758,102.026779 314.493469,102.076645 
	C314.984070,102.079048 315.474609,102.093880 316.415039,102.140030 
	C316.905243,108.997665 316.765137,115.825790 317.052124,122.635933 
	C317.229980,126.856216 315.568695,128.402374 311.500671,128.013794 
	C309.356445,127.808952 307.178101,127.961304 304.567383,127.934204 
	C304.119598,127.916023 304.088165,127.913742 304.066284,127.449173 
	C304.034393,124.337730 303.887085,121.682327 304.050842,119.046257 
	C304.234467,116.090897 303.184814,114.797302 300.094818,114.970238 
	C297.130737,115.136131 294.145172,114.917175 291.169037,114.867355 
z"/>
<path fill="#80ACAD" opacity="1.000000" stroke="none" 
	d="
M317.433716,164.994385 
	C317.026642,152.996231 317.026642,152.994690 329.173492,152.997070 
	C333.121887,152.997849 337.070282,153.008957 341.481018,153.034393 
	C341.972046,155.083481 342.000763,157.113495 342.075562,159.578705 
	C342.085358,161.395065 342.049042,162.776230 342.016296,164.571777 
	C333.982025,164.989395 325.944153,164.992615 317.433716,164.994385 
z"/>
<path fill="#9ECDD1" opacity="1.000000" stroke="none" 
	d="
M27.375257,126.926041 
	C27.031357,126.145134 27.016165,125.313522 27.013975,124.481880 
	C26.989338,115.124512 26.989876,115.124512 36.705521,116.715294 
	C33.904186,120.291336 30.807095,123.583328 27.375257,126.926041 
z"/>
<path fill="#C3D6D0" opacity="1.000000" stroke="none" 
	d="
M114.542274,139.145050 
	C115.240921,153.003174 115.240921,153.001587 101.344727,153.004013 
	C97.556725,153.004684 93.768715,153.017899 89.518105,153.035400 
	C89.158524,137.579865 87.053978,140.335175 101.809303,139.995560 
	C105.935303,139.900620 110.055771,139.564896 114.542274,139.145050 
z"/>
<path fill="#C3D6D0" opacity="1.000000" stroke="none" 
	d="
M51.545143,152.707443 
	C51.390953,149.035706 51.685314,145.486435 51.972275,141.498291 
	C51.972553,140.884293 51.980228,140.709137 51.992363,140.271118 
	C58.914585,140.011032 65.835480,140.137085 72.748726,139.961502 
	C75.925156,139.880829 77.300957,140.890884 77.044350,144.178421 
	C76.839912,146.797729 77.004402,149.445862 76.994110,152.547699 
	C68.653297,152.952759 60.323498,152.891327 51.545143,152.707443 
z"/>
<path fill="#C2D5CF" opacity="1.000000" stroke="none" 
	d="
M88.582199,153.038559 
	C89.022430,157.050354 88.997604,161.040405 88.940666,165.438705 
	C85.906395,165.894775 82.904243,165.942612 79.450027,166.026947 
	C78.326431,164.471069 77.296387,162.928070 77.068474,161.274536 
	C76.737343,158.872101 76.984848,156.389923 76.983368,153.481384 
	C80.693138,153.019638 84.405144,153.018234 88.582199,153.038559 
z"/>
<path fill="#F2F0DB" opacity="1.000000" stroke="none" 
	d="
M88.264526,78.323975 
	C92.037308,78.023773 96.051178,78.013702 100.526649,78.016174 
	C96.979607,81.470078 92.760048,80.413849 88.264526,78.323975 
z"/>
<path fill="#F2F0DB" opacity="1.000000" stroke="none" 
	d="
M78.270576,78.295151 
	C79.409477,78.028923 80.780899,78.018593 82.563553,78.016792 
	C81.484222,78.200569 79.993668,78.375809 78.270576,78.295151 
z"/>
<path fill="#C3D5D0" opacity="1.000000" stroke="none" 
	d="
M290.975952,101.570312 
	C278.990051,101.969727 278.989990,101.969727 278.989929,114.039261 
	C278.989868,121.034607 278.775116,128.039124 279.073273,135.021744 
	C279.243439,139.007233 277.934021,140.499863 273.982635,140.065872 
	C271.679382,139.812912 269.324341,140.031281 266.536041,140.048630 
	C266.055420,129.073273 265.891907,118.084427 266.083374,107.101784 
	C266.149872,103.288048 265.198151,101.771118 261.088074,101.927345 
	C253.357590,102.221161 254.007507,102.810478 253.984268,94.637489 
	C253.971970,90.309349 254.213486,85.965103 253.914444,81.657707 
	C253.644928,77.776031 255.237061,76.542976 258.838165,76.986458 
	C260.150360,77.148064 261.708069,76.597450 262.776276,77.129555 
	C264.063873,77.770950 265.288513,79.059052 265.904907,80.366753 
	C266.419189,81.457764 266.152130,82.996979 265.995636,84.309616 
	C265.476410,88.664192 267.272156,90.337128 271.671936,90.054726 
	C276.313904,89.756783 281.017029,90.301552 285.643372,89.900459 
	C290.269958,89.499352 291.599457,91.389732 291.059082,95.615326 
	C290.828522,97.418221 291.002014,99.272797 290.975952,101.570312 
z"/>
<path fill="#C1D4CF" opacity="1.000000" stroke="none" 
	d="
M253.496597,152.974823 
	C254.051620,165.979645 254.051620,165.982452 240.841370,165.978851 
	C236.870514,165.977768 232.899643,165.956314 228.460052,165.908234 
	C227.993484,161.897354 227.995651,157.922440 227.995850,153.488022 
	C228.165466,153.018417 228.337036,153.008316 228.766312,152.983948 
	C237.026596,152.973434 245.029175,152.977219 253.496597,152.974823 
z"/>
<path fill="#C3D5D0" opacity="1.000000" stroke="none" 
	d="
M265.591827,140.054977 
	C266.060150,140.079529 266.050018,140.536987 265.665588,140.926788 
	C263.834717,141.544708 262.384583,141.984894 260.942596,141.959686 
	C257.176147,141.893829 255.275024,142.926422 256.475433,147.253403 
	C256.955475,148.983749 256.196075,151.057968 256.000885,152.975647 
	C255.548630,152.979675 255.096375,152.983704 254.304688,152.971130 
	C253.968887,152.300110 253.974274,151.645676 253.975967,150.991241 
	C254.004379,139.980377 254.004257,139.980377 265.591827,140.054977 
z"/>
<path fill="#DCE9DB" opacity="1.000000" stroke="none" 
	d="
M293.115326,77.273155 
	C293.022369,77.138664 293.504089,77.087311 293.744263,77.116478 
	C293.984406,77.145645 293.648102,77.479652 293.648102,77.479652 
	C293.648102,77.479652 293.208282,77.407646 293.115326,77.273155 
z"/>
<path fill="#B7D2CE" opacity="1.000000" stroke="none" 
	d="
M204.966751,165.623917 
	C204.380264,165.497772 203.738770,165.063950 203.060028,164.310593 
	C203.652435,164.432800 204.282089,164.874527 204.966751,165.623917 
z"/>
<path fill="#7FACAE" opacity="1.000000" stroke="none" 
	d="
M178.414795,176.986832 
	C177.964081,175.003311 178.191391,172.999023 177.941879,171.055969 
	C177.391739,166.771973 179.335068,165.751709 183.296646,165.897385 
	C191.890503,166.213440 190.913376,165.107788 190.973221,173.616486 
	C190.981323,174.769440 190.968338,175.922546 190.975494,177.538544 
	C190.985886,178.001480 190.509750,177.975388 190.271820,177.956360 
	C186.314758,177.622833 182.595627,177.308334 178.414795,176.986832 
z"/>
<path fill="#C2D5CF" opacity="1.000000" stroke="none" 
	d="
M291.117432,115.330345 
	C294.145172,114.917175 297.130737,115.136131 300.094818,114.970238 
	C303.184814,114.797302 304.234467,116.090897 304.050842,119.046257 
	C303.887085,121.682327 304.034393,124.337730 304.059937,127.438004 
	C303.614044,127.908661 303.152649,127.925919 302.334595,127.533150 
	C300.398163,124.994507 302.829620,119.910027 298.401215,120.391624 
	C294.199158,120.848602 296.665497,125.284889 295.998779,127.909843 
	C292.442993,128.290558 291.430939,125.872040 291.122955,123.125412 
	C290.852081,120.709625 291.066010,118.239479 291.117432,115.330345 
z"/>
<path fill="#C1D4D1" opacity="1.000000" stroke="none" 
	d="
M256.458191,152.986206 
	C256.196075,151.057968 256.955475,148.983749 256.475433,147.253403 
	C255.275024,142.926422 257.176147,141.893829 260.942596,141.959686 
	C262.384583,141.984894 263.834717,141.544708 265.652832,141.155212 
	C266.019562,141.974564 266.025116,142.955490 266.008057,143.936005 
	C265.826904,154.343063 267.542053,152.871292 256.458191,152.986206 
z"/>
<path fill="#C1D4D1" opacity="1.000000" stroke="none" 
	d="
M296.426941,127.934540 
	C296.665497,125.284889 294.199158,120.848602 298.401215,120.391624 
	C302.829620,119.910027 300.398163,124.994507 301.989075,127.518448 
	C300.285187,127.928925 298.570129,127.944077 296.426941,127.934540 
z"/>
</svg>