<svg xmlns="http://www.w3.org/2000/svg" xmlns:xlink="http://www.w3.org/1999/xlink" width="960" height="540" zoomAndPan="magnify" viewBox="0 0 1440 809.999993" preserveAspectRatio="xMidYMid meet" version="1.0"><defs><g/></defs><g fill="#000000" fill-opacity="1"><g transform="translate(29.645839, 408.516551)"><g><path d="M 227.921875 0 L 180.40625 0 L 180.40625 -72.203125 L 137.953125 0 L 102.515625 0 L 60.140625 -72.203125 L 60.140625 0 L 12.625 0 L 12.625 -113.25 L 69.046875 -113.25 L 120.265625 -32.359375 L 171.40625 -113.25 L 227.921875 -113.25 Z M 227.921875 0 "/></g></g></g><g fill="#000000" fill-opacity="1"><g transform="translate(270.189291, 408.516551)"><g><path d="M 190.1875 0 L 142.046875 0 L 131.40625 -18.546875 L 59.984375 -18.546875 L 49.328125 0 L 1.1875 0 L 73.625 -113.171875 L 117.75 -113.171875 Z M 115.375 -46.5625 L 95.734375 -80.890625 L 76 -46.5625 Z M 115.375 -46.5625 "/></g></g></g><g fill="#000000" fill-opacity="1"><g transform="translate(461.566569, 408.516551)"><g><path d="M 85.625 2.453125 C 57.632812 2.453125 37.035156 -3.3125 23.828125 -14.84375 C 12.148438 -25.039062 6.3125 -38.925781 6.3125 -56.5 C 6.3125 -74.125 12.148438 -88.039062 23.828125 -98.25 C 37.035156 -109.769531 57.632812 -115.53125 85.625 -115.53125 C 101.5625 -115.53125 114.816406 -113.738281 125.390625 -110.15625 C 135.972656 -106.582031 144.273438 -101.707031 150.296875 -95.53125 C 156.328125 -89.351562 160.445312 -82.238281 162.65625 -74.1875 L 111.828125 -74.1875 C 106.515625 -81.5 97.78125 -85.15625 85.625 -85.15625 C 74.15625 -85.15625 65.710938 -81.863281 60.296875 -75.28125 C 55.984375 -69.96875 53.828125 -63.707031 53.828125 -56.5 C 53.828125 -49.289062 55.984375 -43.054688 60.296875 -37.796875 C 65.710938 -31.222656 74.15625 -27.9375 85.625 -27.9375 C 94.882812 -27.9375 101.84375 -28.738281 106.5 -30.34375 C 111.15625 -31.945312 114.5625 -34.039062 116.71875 -36.625 L 98.171875 -36.625 L 98.171875 -56.5 L 162.65625 -56.5 L 162.65625 0.078125 L 142.921875 0.078125 L 138.890625 -10.890625 C 126.316406 -1.992188 108.5625 2.453125 85.625 2.453125 Z M 85.625 2.453125 "/></g></g></g><g fill="#000000" fill-opacity="1"><g transform="translate(633.687742, 408.516551)"><g><path d="M 180.640625 0 L 124.140625 0 L 60.140625 -76.625 L 60.140625 0 L 12.625 0 L 12.625 -113.25 L 69.125 -113.25 L 133.140625 -37.015625 L 133.140625 -113.25 L 180.640625 -113.25 Z M 180.640625 0 "/></g></g></g><g fill="#000000" fill-opacity="1"><g transform="translate(826.959062, 408.516551)"><g><path d="M 85.625 2.453125 C 57.632812 2.453125 37.035156 -3.3125 23.828125 -14.84375 C 12.148438 -25.039062 6.3125 -38.953125 6.3125 -56.578125 C 6.3125 -74.148438 12.148438 -88.039062 23.828125 -98.25 C 37.035156 -109.769531 57.632812 -115.53125 85.625 -115.53125 C 113.613281 -115.53125 134.210938 -109.769531 147.421875 -98.25 C 159.097656 -88.039062 164.9375 -74.148438 164.9375 -56.578125 C 164.9375 -38.953125 159.097656 -25.039062 147.421875 -14.84375 C 134.210938 -3.3125 113.613281 2.453125 85.625 2.453125 Z M 85.625 -27.9375 C 97.09375 -27.9375 105.507812 -31.222656 110.875 -37.796875 C 115.195312 -43.109375 117.359375 -49.367188 117.359375 -56.578125 C 117.359375 -63.785156 115.195312 -70.019531 110.875 -75.28125 C 105.507812 -81.914062 97.09375 -85.234375 85.625 -85.234375 C 74.15625 -85.234375 65.710938 -81.914062 60.296875 -75.28125 C 55.984375 -70.019531 53.828125 -63.785156 53.828125 -56.578125 C 53.828125 -49.367188 55.984375 -43.109375 60.296875 -37.796875 C 65.710938 -31.222656 74.15625 -27.9375 85.625 -27.9375 Z M 85.625 -27.9375 "/></g></g></g><g fill="#000000" fill-opacity="1"><g transform="translate(998.212072, 408.516551)"><g><path d="M 144.8125 0 L 12.625 0 L 12.625 -113.25 L 60.140625 -113.25 L 60.140625 -28.015625 L 144.8125 -28.015625 Z M 144.8125 0 "/></g></g></g><g fill="#000000" fill-opacity="1"><g transform="translate(1146.184158, 408.516551)"><g><path d="M 60.140625 0 L 12.625 0 L 12.625 -113.25 L 60.140625 -113.25 Z M 60.140625 0 "/></g></g></g><g fill="#000000" fill-opacity="1"><g transform="translate(1218.946935, 408.516551)"><g><path d="M 190.1875 0 L 142.046875 0 L 131.40625 -18.546875 L 59.984375 -18.546875 L 49.328125 0 L 1.1875 0 L 73.625 -113.171875 L 117.75 -113.171875 Z M 115.375 -46.5625 L 95.734375 -80.890625 L 76 -46.5625 Z M 115.375 -46.5625 "/></g></g></g><g fill="#000000" fill-opacity="1"><g transform="translate(1000.093174, 551.520919)"><g><path d="M 8.953125 -88.578125 L 13.609375 -88.578125 C 19.242188 -88.578125 22.0625 -85.8125 22.0625 -80.28125 C 22.0625 -77.625 16.863281 -71.984375 6.46875 -63.359375 C 9.125 -60.378906 11.503906 -54.078125 13.609375 -44.453125 C 19.242188 -44.453125 31.1875 -51.585938 49.4375 -65.859375 L 54.25 -65.859375 C 55.90625 -65.742188 56.734375 -64.910156 56.734375 -63.359375 L 56.734375 -62.375 C 42.910156 -49.4375 28.144531 -40.644531 12.4375 -36 C 10.113281 -29.695312 5.359375 -26.546875 -1.828125 -26.546875 L -8.953125 -26.546875 L -8.953125 -31.34375 C -6.296875 -35.332031 -1.925781 -38.875 4.15625 -41.96875 C 4.15625 -46.28125 0.613281 -55.40625 -6.46875 -69.34375 L -6.46875 -73.15625 C -4.03125 -83.4375 1.109375 -88.578125 8.953125 -88.578125 Z M 2.984375 -71.828125 C 7.960938 -74.804688 11.113281 -78.398438 12.4375 -82.609375 L 11.453125 -82.609375 C 5.804688 -80.285156 2.984375 -76.691406 2.984375 -71.828125 Z M 2.984375 -71.828125 "/></g></g></g><g fill="#000000" fill-opacity="1"><g transform="translate(1050.684439, 551.520919)"><g><path d="M 33.015625 -139.34375 L 36.671875 -139.34375 C 38.210938 -139.113281 38.984375 -138.335938 38.984375 -137.015625 C 38.984375 -133.585938 35.390625 -123.632812 28.203125 -107.15625 L 312.6875 -107.15625 L 318.65625 -106 L 318.65625 -102.1875 C 318.65625 -99.863281 311.410156 -98.703125 296.921875 -98.703125 L 292.28125 -98.703125 L 288.796875 -101.1875 L 24.71875 -101.1875 C 24.71875 -99.75 -5.96875 -27.703125 -67.34375 114.953125 C -65.675781 114.953125 -64.84375 116.222656 -64.84375 118.765625 C -69.820312 129.828125 -74.632812 135.359375 -79.28125 135.359375 C -83.257812 134.691406 -85.25 133.472656 -85.25 131.703125 L 14.109375 -101.1875 L -62.53125 -101.1875 C -64.070312 -101.1875 -64.84375 -101.960938 -64.84375 -103.515625 C -63.96875 -105.941406 -61.535156 -107.15625 -57.546875 -107.15625 L 15.109375 -107.15625 C 16.429688 -107.15625 21.625 -117.441406 30.6875 -138.015625 Z M 33.015625 -139.34375 "/></g></g></g><g fill="#000000" fill-opacity="1"><g transform="translate(1074.238404, 551.520919)"><g><path d="M 5.484375 -83.265625 L 9.296875 -83.265625 C 10.734375 -82.929688 11.453125 -82.101562 11.453125 -80.78125 L 11.453125 -78.296875 C 4.367188 -59.378906 0.828125 -49.09375 0.828125 -47.4375 C 2.160156 -47.4375 8.519531 -54.179688 19.90625 -67.671875 L 23.390625 -70.171875 L 24.71875 -70.171875 L 30.6875 -68.84375 L 30.6875 -66.34375 C 30.6875 -64.351562 29.523438 -59.210938 27.203125 -50.921875 L 29.359375 -49.765625 C 31.359375 -49.765625 41.753906 -55.289062 60.546875 -66.34375 C 63.648438 -65.238281 65.203125 -64.082031 65.203125 -62.875 L 65.203125 -61.703125 C 52.816406 -50.753906 41.703125 -44.785156 31.859375 -43.796875 L 25.890625 -43.796875 C 20.242188 -43.796875 17.421875 -45.785156 17.421875 -49.765625 C 11.117188 -43.460938 5.976562 -40.3125 2 -40.3125 L -6.46875 -40.3125 C -8.789062 -41.082031 -9.953125 -43.457031 -9.953125 -47.4375 C -3.421875 -71.320312 1.722656 -83.265625 5.484375 -83.265625 Z M 5.484375 -83.265625 "/></g></g></g><g fill="#000000" fill-opacity="1"><g transform="translate(1133.455064, 551.520919)"><g><path d="M 106.828125 -223.109375 L 111.46875 -223.109375 C 113.132812 -223.109375 113.96875 -221.945312 113.96875 -219.625 L 11.28125 20.40625 C 12.050781 21.945312 12.4375 23.109375 12.4375 23.890625 L 8.796875 26.375 L 7.796875 26.375 C 3.484375 26.375 1.050781 25.15625 0.5 22.71875 C 0.5 18.519531 14.429688 -15.316406 42.296875 -78.796875 C 35.222656 -71.160156 31.6875 -64.800781 31.6875 -59.71875 C 27.8125 -59.71875 21.835938 -55.734375 13.765625 -47.765625 C 7.910156 -43.785156 3.488281 -41.796875 0.5 -41.796875 L -7.953125 -41.796875 C -9.390625 -41.796875 -10.109375 -42.515625 -10.109375 -43.953125 L -10.109375 -45.28125 C -9.671875 -55.675781 -2.15625 -68.835938 12.4375 -84.765625 L 18.421875 -85.765625 L 19.75 -85.765625 C 22.726562 -85.765625 26.265625 -83.769531 30.359375 -79.78125 L 31.6875 -79.78125 C 48.050781 -106.65625 60.710938 -129.828125 69.671875 -149.296875 C 83.273438 -175.503906 94.832031 -199.773438 104.34375 -222.109375 Z M 1.828125 -49.921875 C 10.234375 -54.566406 16.925781 -60.984375 21.90625 -69.171875 L 21.90625 -70.328125 C 21.125 -75.191406 19.960938 -77.625 18.421875 -77.625 C 9.460938 -67.789062 3.929688 -58.554688 1.828125 -49.921875 Z M 1.828125 -49.921875 "/></g></g></g><g fill="#000000" fill-opacity="1"><g transform="translate(1199.638391, 551.520919)"><g><path d="M 35.671875 -141.828125 L 42.96875 -141.828125 L 42.96875 -134.53125 C 35.332031 -132.207031 30.519531 -131.046875 28.53125 -131.046875 L 25.046875 -131.046875 C 23.390625 -131.046875 22.5625 -131.816406 22.5625 -133.359375 C 22.5625 -134.472656 26.929688 -137.296875 35.671875 -141.828125 Z M 7.140625 -86.75 L 11.78125 -86.75 C 13 -86.75 14.160156 -85.585938 15.265625 -83.265625 L 15.265625 -82.109375 C 15.265625 -79.453125 11.28125 -68.671875 3.3125 -49.765625 L 3.3125 -43.796875 C 13.820312 -49.429688 25.4375 -56.945312 38.15625 -66.34375 L 39.15625 -66.34375 C 40.695312 -65.6875 42.351562 -65.359375 44.125 -65.359375 L 44.125 -61.703125 C 29.863281 -48.429688 15.929688 -39.695312 2.328125 -35.5 L -1.328125 -35.5 C -6.191406 -35.5 -8.625 -37.820312 -8.625 -42.46875 C -8.625 -48.101562 -4.203125 -60.875 4.640625 -80.78125 C 3.753906 -82.4375 3.3125 -83.597656 3.3125 -84.265625 Z M 7.140625 -86.75 "/></g></g></g><g fill="#000000" fill-opacity="1"><g transform="translate(1239.779656, 551.520919)"><g><path d="M 17.078125 -78.125 C 21.285156 -78.125 24.050781 -74.144531 25.375 -66.1875 C 25.375 -65.632812 24.210938 -60.050781 21.890625 -49.4375 C 28.523438 -51.757812 36.046875 -56.898438 44.453125 -64.859375 C 45.992188 -65.742188 47.597656 -66.1875 49.265625 -66.1875 C 50.921875 -65.300781 52.132812 -64.859375 52.90625 -64.859375 L 52.90625 -62.703125 C 41.851562 -49.867188 29.910156 -43.453125 17.078125 -43.453125 C 17.078125 -40.472656 13.867188 -36.9375 7.453125 -32.84375 L -3.328125 -32.84375 C -6.421875 -34.164062 -7.96875 -36.875 -7.96875 -40.96875 L -7.96875 -42.296875 C -7.96875 -56.234375 -1.992188 -67.734375 9.953125 -76.796875 Z M 14.59375 -67.34375 L 14.59375 -62.703125 L 15.921875 -62.703125 L 15.921875 -67.34375 Z M 13.4375 -61.375 L 13.4375 -56.734375 L 14.59375 -56.734375 L 14.59375 -61.375 Z M 2.65625 -54.25 L 1.484375 -42.296875 L 1.484375 -38.8125 L 2.65625 -38.8125 C 5.632812 -40.25 7.625 -42.628906 8.625 -45.953125 C 8.175781 -45.953125 6.1875 -48.71875 2.65625 -54.25 Z M 2.65625 -54.25 "/></g></g></g><g fill="#000000" fill-opacity="1"><g transform="translate(59.311781, 479.696027)"><g><path d="M 3.640625 -22.328125 L 6 -22.328125 L 6 -2.046875 L 18.5 -2.046875 L 18.5 0 L 3.640625 0 Z M 3.640625 -22.328125 "/></g></g></g><g fill="#000000" fill-opacity="1"><g transform="translate(103.634519, 479.696027)"><g><path d="M 17.640625 -5.96875 L 5.203125 -5.96875 L 2.515625 0 L 0.0625 0 L 10.28125 -22.328125 L 12.609375 -22.328125 L 22.8125 0 L 20.328125 0 Z M 16.78125 -7.875 L 11.421875 -19.875 L 6.0625 -7.875 Z M 16.78125 -7.875 "/></g></g></g><g fill="#000000" fill-opacity="1"><g transform="translate(152.041729, 479.696027)"><g><path d="M 9.796875 0.1875 C 8.140625 0.1875 6.550781 -0.078125 5.03125 -0.609375 C 3.507812 -1.140625 2.332031 -1.84375 1.5 -2.71875 L 2.421875 -4.53125 C 3.234375 -3.71875 4.304688 -3.0625 5.640625 -2.5625 C 6.984375 -2.0625 8.367188 -1.8125 9.796875 -1.8125 C 11.796875 -1.8125 13.296875 -2.175781 14.296875 -2.90625 C 15.296875 -3.644531 15.796875 -4.601562 15.796875 -5.78125 C 15.796875 -6.664062 15.523438 -7.375 14.984375 -7.90625 C 14.441406 -8.4375 13.773438 -8.847656 12.984375 -9.140625 C 12.203125 -9.429688 11.109375 -9.742188 9.703125 -10.078125 C 8.015625 -10.503906 6.671875 -10.914062 5.671875 -11.3125 C 4.679688 -11.707031 3.828125 -12.304688 3.109375 -13.109375 C 2.398438 -13.921875 2.046875 -15.019531 2.046875 -16.40625 C 2.046875 -17.53125 2.34375 -18.550781 2.9375 -19.46875 C 3.53125 -20.394531 4.441406 -21.132812 5.671875 -21.6875 C 6.910156 -22.25 8.445312 -22.53125 10.28125 -22.53125 C 11.550781 -22.53125 12.796875 -22.351562 14.015625 -22 C 15.242188 -21.644531 16.304688 -21.160156 17.203125 -20.546875 L 16.40625 -18.671875 C 15.46875 -19.285156 14.46875 -19.742188 13.40625 -20.046875 C 12.34375 -20.359375 11.300781 -20.515625 10.28125 -20.515625 C 8.320312 -20.515625 6.847656 -20.132812 5.859375 -19.375 C 4.867188 -18.625 4.375 -17.65625 4.375 -16.46875 C 4.375 -15.570312 4.644531 -14.851562 5.1875 -14.3125 C 5.726562 -13.769531 6.40625 -13.351562 7.21875 -13.0625 C 8.039062 -12.78125 9.144531 -12.46875 10.53125 -12.125 C 12.164062 -11.71875 13.488281 -11.316406 14.5 -10.921875 C 15.507812 -10.535156 16.363281 -9.941406 17.0625 -9.140625 C 17.769531 -8.335938 18.125 -7.257812 18.125 -5.90625 C 18.125 -4.78125 17.816406 -3.753906 17.203125 -2.828125 C 16.597656 -1.898438 15.671875 -1.164062 14.421875 -0.625 C 13.171875 -0.0820312 11.628906 0.1875 9.796875 0.1875 Z M 9.796875 0.1875 "/></g></g></g><g fill="#000000" fill-opacity="1"><g transform="translate(197.194116, 479.696027)"><g><path d="M 22.296875 -22.328125 L 22.296875 0 L 19.96875 0 L 19.96875 -10.3125 L 6 -10.3125 L 6 0 L 3.640625 0 L 3.640625 -22.328125 L 6 -22.328125 L 6 -12.375 L 19.96875 -12.375 L 19.96875 -22.328125 Z M 22.296875 -22.328125 "/></g></g></g><g fill="#000000" fill-opacity="1"><g transform="translate(248.664674, 479.696027)"><g><path d="M 19.4375 -2.046875 L 19.4375 0 L 3.640625 0 L 3.640625 -22.328125 L 18.953125 -22.328125 L 18.953125 -20.296875 L 6 -20.296875 L 6 -12.34375 L 17.546875 -12.34375 L 17.546875 -10.34375 L 6 -10.34375 L 6 -2.046875 Z M 19.4375 -2.046875 "/></g></g></g><g fill="#000000" fill-opacity="1"><g transform="translate(295.540201, 479.696027)"><g><path d="M 9.796875 0.1875 C 8.140625 0.1875 6.550781 -0.078125 5.03125 -0.609375 C 3.507812 -1.140625 2.332031 -1.84375 1.5 -2.71875 L 2.421875 -4.53125 C 3.234375 -3.71875 4.304688 -3.0625 5.640625 -2.5625 C 6.984375 -2.0625 8.367188 -1.8125 9.796875 -1.8125 C 11.796875 -1.8125 13.296875 -2.175781 14.296875 -2.90625 C 15.296875 -3.644531 15.796875 -4.601562 15.796875 -5.78125 C 15.796875 -6.664062 15.523438 -7.375 14.984375 -7.90625 C 14.441406 -8.4375 13.773438 -8.847656 12.984375 -9.140625 C 12.203125 -9.429688 11.109375 -9.742188 9.703125 -10.078125 C 8.015625 -10.503906 6.671875 -10.914062 5.671875 -11.3125 C 4.679688 -11.707031 3.828125 -12.304688 3.109375 -13.109375 C 2.398438 -13.921875 2.046875 -15.019531 2.046875 -16.40625 C 2.046875 -17.53125 2.34375 -18.550781 2.9375 -19.46875 C 3.53125 -20.394531 4.441406 -21.132812 5.671875 -21.6875 C 6.910156 -22.25 8.445312 -22.53125 10.28125 -22.53125 C 11.550781 -22.53125 12.796875 -22.351562 14.015625 -22 C 15.242188 -21.644531 16.304688 -21.160156 17.203125 -20.546875 L 16.40625 -18.671875 C 15.46875 -19.285156 14.46875 -19.742188 13.40625 -20.046875 C 12.34375 -20.359375 11.300781 -20.515625 10.28125 -20.515625 C 8.320312 -20.515625 6.847656 -20.132812 5.859375 -19.375 C 4.867188 -18.625 4.375 -17.65625 4.375 -16.46875 C 4.375 -15.570312 4.644531 -14.851562 5.1875 -14.3125 C 5.726562 -13.769531 6.40625 -13.351562 7.21875 -13.0625 C 8.039062 -12.78125 9.144531 -12.46875 10.53125 -12.125 C 12.164062 -11.71875 13.488281 -11.316406 14.5 -10.921875 C 15.507812 -10.535156 16.363281 -9.941406 17.0625 -9.140625 C 17.769531 -8.335938 18.125 -7.257812 18.125 -5.90625 C 18.125 -4.78125 17.816406 -3.753906 17.203125 -2.828125 C 16.597656 -1.898438 15.671875 -1.164062 14.421875 -0.625 C 13.171875 -0.0820312 11.628906 0.1875 9.796875 0.1875 Z M 9.796875 0.1875 "/></g></g></g><g fill="#000000" fill-opacity="1"><g transform="translate(340.692577, 479.696027)"><g/></g></g><g fill="#000000" fill-opacity="1"><g transform="translate(374.580764, 479.696027)"><g><path d="M 1.921875 -9.640625 L 10.28125 -9.640625 L 10.28125 -7.65625 L 1.921875 -7.65625 Z M 1.921875 -9.640625 "/></g></g></g><g fill="#000000" fill-opacity="1"><g transform="translate(412.298143, 479.696027)"><g><path d="M 17.703125 -11.515625 C 19.171875 -11.203125 20.300781 -10.570312 21.09375 -9.625 C 21.894531 -8.675781 22.296875 -7.457031 22.296875 -5.96875 C 22.296875 -4.050781 21.585938 -2.578125 20.171875 -1.546875 C 18.765625 -0.515625 16.675781 0 13.90625 0 L 3.640625 0 L 3.640625 -22.328125 L 13.265625 -22.328125 C 15.753906 -22.328125 17.6875 -21.828125 19.0625 -20.828125 C 20.4375 -19.828125 21.125 -18.414062 21.125 -16.59375 C 21.125 -15.351562 20.816406 -14.300781 20.203125 -13.4375 C 19.597656 -12.582031 18.765625 -11.941406 17.703125 -11.515625 Z M 6 -20.390625 L 6 -12.28125 L 13.109375 -12.28125 C 14.921875 -12.28125 16.316406 -12.625 17.296875 -13.3125 C 18.273438 -14.007812 18.765625 -15.019531 18.765625 -16.34375 C 18.765625 -17.65625 18.273438 -18.65625 17.296875 -19.34375 C 16.316406 -20.039062 14.921875 -20.390625 13.109375 -20.390625 Z M 13.875 -1.953125 C 15.875 -1.953125 17.382812 -2.289062 18.40625 -2.96875 C 19.425781 -3.644531 19.9375 -4.707031 19.9375 -6.15625 C 19.9375 -8.945312 17.914062 -10.34375 13.875 -10.34375 L 6 -10.34375 L 6 -1.953125 Z M 13.875 -1.953125 "/></g></g></g><g fill="#000000" fill-opacity="1"><g transform="translate(461.886028, 479.696027)"><g><path d="M 18.890625 0 L 13.78125 -7.171875 C 13.207031 -7.109375 12.613281 -7.078125 12 -7.078125 L 6 -7.078125 L 6 0 L 3.640625 0 L 3.640625 -22.328125 L 12 -22.328125 C 14.84375 -22.328125 17.070312 -21.644531 18.6875 -20.28125 C 20.3125 -18.925781 21.125 -17.054688 21.125 -14.671875 C 21.125 -12.929688 20.679688 -11.457031 19.796875 -10.25 C 18.910156 -9.050781 17.648438 -8.1875 16.015625 -7.65625 L 21.46875 0 Z M 11.9375 -9.09375 C 14.144531 -9.09375 15.832031 -9.582031 17 -10.5625 C 18.175781 -11.539062 18.765625 -12.910156 18.765625 -14.671875 C 18.765625 -16.484375 18.175781 -17.875 17 -18.84375 C 15.832031 -19.8125 14.144531 -20.296875 11.9375 -20.296875 L 6 -20.296875 L 6 -9.09375 Z M 11.9375 -9.09375 "/></g></g></g><g fill="#000000" fill-opacity="1"><g transform="translate(510.484688, 479.696027)"><g><path d="M 13.40625 0.1875 C 11.1875 0.1875 9.175781 -0.304688 7.375 -1.296875 C 5.582031 -2.285156 4.179688 -3.640625 3.171875 -5.359375 C 2.160156 -7.078125 1.65625 -9.015625 1.65625 -11.171875 C 1.65625 -13.316406 2.160156 -15.25 3.171875 -16.96875 C 4.179688 -18.695312 5.582031 -20.054688 7.375 -21.046875 C 9.175781 -22.035156 11.1875 -22.53125 13.40625 -22.53125 C 15.613281 -22.53125 17.601562 -22.039062 19.375 -21.0625 C 21.15625 -20.082031 22.554688 -18.722656 23.578125 -16.984375 C 24.597656 -15.253906 25.109375 -13.316406 25.109375 -11.171875 C 25.109375 -9.015625 24.597656 -7.070312 23.578125 -5.34375 C 22.554688 -3.613281 21.15625 -2.257812 19.375 -1.28125 C 17.601562 -0.300781 15.613281 0.1875 13.40625 0.1875 Z M 13.40625 -1.921875 C 15.164062 -1.921875 16.757812 -2.316406 18.1875 -3.109375 C 19.613281 -3.910156 20.726562 -5.015625 21.53125 -6.421875 C 22.34375 -7.835938 22.75 -9.421875 22.75 -11.171875 C 22.75 -12.910156 22.34375 -14.488281 21.53125 -15.90625 C 20.726562 -17.320312 19.613281 -18.425781 18.1875 -19.21875 C 16.757812 -20.019531 15.164062 -20.421875 13.40625 -20.421875 C 11.632812 -20.421875 10.03125 -20.019531 8.59375 -19.21875 C 7.15625 -18.425781 6.023438 -17.320312 5.203125 -15.90625 C 4.390625 -14.488281 3.984375 -12.910156 3.984375 -11.171875 C 3.984375 -9.421875 4.390625 -7.835938 5.203125 -6.421875 C 6.023438 -5.015625 7.15625 -3.910156 8.59375 -3.109375 C 10.03125 -2.316406 11.632812 -1.921875 13.40625 -1.921875 Z M 13.40625 -1.921875 "/></g></g></g><g fill="#000000" fill-opacity="1"><g transform="translate(562.784912, 479.696027)"><g><path d="M 34.296875 -22.328125 L 26.765625 0 L 24.28125 0 L 17.734375 -19.046875 L 11.171875 0 L 8.703125 0 L 1.1875 -22.328125 L 3.609375 -22.328125 L 10.046875 -3.125 L 16.71875 -22.328125 L 18.921875 -22.328125 L 25.5 -3.03125 L 32.03125 -22.328125 Z M 34.296875 -22.328125 "/></g></g></g><g fill="#000000" fill-opacity="1"><g transform="translate(623.764636, 479.696027)"><g><path d="M 9.796875 0.1875 C 8.140625 0.1875 6.550781 -0.078125 5.03125 -0.609375 C 3.507812 -1.140625 2.332031 -1.84375 1.5 -2.71875 L 2.421875 -4.53125 C 3.234375 -3.71875 4.304688 -3.0625 5.640625 -2.5625 C 6.984375 -2.0625 8.367188 -1.8125 9.796875 -1.8125 C 11.796875 -1.8125 13.296875 -2.175781 14.296875 -2.90625 C 15.296875 -3.644531 15.796875 -4.601562 15.796875 -5.78125 C 15.796875 -6.664062 15.523438 -7.375 14.984375 -7.90625 C 14.441406 -8.4375 13.773438 -8.847656 12.984375 -9.140625 C 12.203125 -9.429688 11.109375 -9.742188 9.703125 -10.078125 C 8.015625 -10.503906 6.671875 -10.914062 5.671875 -11.3125 C 4.679688 -11.707031 3.828125 -12.304688 3.109375 -13.109375 C 2.398438 -13.921875 2.046875 -15.019531 2.046875 -16.40625 C 2.046875 -17.53125 2.34375 -18.550781 2.9375 -19.46875 C 3.53125 -20.394531 4.441406 -21.132812 5.671875 -21.6875 C 6.910156 -22.25 8.445312 -22.53125 10.28125 -22.53125 C 11.550781 -22.53125 12.796875 -22.351562 14.015625 -22 C 15.242188 -21.644531 16.304688 -21.160156 17.203125 -20.546875 L 16.40625 -18.671875 C 15.46875 -19.285156 14.46875 -19.742188 13.40625 -20.046875 C 12.34375 -20.359375 11.300781 -20.515625 10.28125 -20.515625 C 8.320312 -20.515625 6.847656 -20.132812 5.859375 -19.375 C 4.867188 -18.625 4.375 -17.65625 4.375 -16.46875 C 4.375 -15.570312 4.644531 -14.851562 5.1875 -14.3125 C 5.726562 -13.769531 6.40625 -13.351562 7.21875 -13.0625 C 8.039062 -12.78125 9.144531 -12.46875 10.53125 -12.125 C 12.164062 -11.71875 13.488281 -11.316406 14.5 -10.921875 C 15.507812 -10.535156 16.363281 -9.941406 17.0625 -9.140625 C 17.769531 -8.335938 18.125 -7.257812 18.125 -5.90625 C 18.125 -4.78125 17.816406 -3.753906 17.203125 -2.828125 C 16.597656 -1.898438 15.671875 -1.164062 14.421875 -0.625 C 13.171875 -0.0820312 11.628906 0.1875 9.796875 0.1875 Z M 9.796875 0.1875 "/></g></g></g><g fill="#000000" fill-opacity="1"><g transform="translate(668.917034, 479.696027)"><g/></g></g><g fill="#000000" fill-opacity="1"><g transform="translate(702.80524, 479.696027)"><g><path d="M 1.921875 -9.640625 L 10.28125 -9.640625 L 10.28125 -7.65625 L 1.921875 -7.65625 Z M 1.921875 -9.640625 "/></g></g></g><g fill="#000000" fill-opacity="1"><g transform="translate(740.522619, 479.696027)"><g/></g></g><g fill="#000000" fill-opacity="1"><g transform="translate(774.410786, 479.696027)"><g><path d="M 9.796875 0.1875 C 8.140625 0.1875 6.550781 -0.078125 5.03125 -0.609375 C 3.507812 -1.140625 2.332031 -1.84375 1.5 -2.71875 L 2.421875 -4.53125 C 3.234375 -3.71875 4.304688 -3.0625 5.640625 -2.5625 C 6.984375 -2.0625 8.367188 -1.8125 9.796875 -1.8125 C 11.796875 -1.8125 13.296875 -2.175781 14.296875 -2.90625 C 15.296875 -3.644531 15.796875 -4.601562 15.796875 -5.78125 C 15.796875 -6.664062 15.523438 -7.375 14.984375 -7.90625 C 14.441406 -8.4375 13.773438 -8.847656 12.984375 -9.140625 C 12.203125 -9.429688 11.109375 -9.742188 9.703125 -10.078125 C 8.015625 -10.503906 6.671875 -10.914062 5.671875 -11.3125 C 4.679688 -11.707031 3.828125 -12.304688 3.109375 -13.109375 C 2.398438 -13.921875 2.046875 -15.019531 2.046875 -16.40625 C 2.046875 -17.53125 2.34375 -18.550781 2.9375 -19.46875 C 3.53125 -20.394531 4.441406 -21.132812 5.671875 -21.6875 C 6.910156 -22.25 8.445312 -22.53125 10.28125 -22.53125 C 11.550781 -22.53125 12.796875 -22.351562 14.015625 -22 C 15.242188 -21.644531 16.304688 -21.160156 17.203125 -20.546875 L 16.40625 -18.671875 C 15.46875 -19.285156 14.46875 -19.742188 13.40625 -20.046875 C 12.34375 -20.359375 11.300781 -20.515625 10.28125 -20.515625 C 8.320312 -20.515625 6.847656 -20.132812 5.859375 -19.375 C 4.867188 -18.625 4.375 -17.65625 4.375 -16.46875 C 4.375 -15.570312 4.644531 -14.851562 5.1875 -14.3125 C 5.726562 -13.769531 6.40625 -13.351562 7.21875 -13.0625 C 8.039062 -12.78125 9.144531 -12.46875 10.53125 -12.125 C 12.164062 -11.71875 13.488281 -11.316406 14.5 -10.921875 C 15.507812 -10.535156 16.363281 -9.941406 17.0625 -9.140625 C 17.769531 -8.335938 18.125 -7.257812 18.125 -5.90625 C 18.125 -4.78125 17.816406 -3.753906 17.203125 -2.828125 C 16.597656 -1.898438 15.671875 -1.164062 14.421875 -0.625 C 13.171875 -0.0820312 11.628906 0.1875 9.796875 0.1875 Z M 9.796875 0.1875 "/></g></g></g><g fill="#000000" fill-opacity="1"><g transform="translate(819.563143, 479.696027)"><g><path d="M 10.5625 -10.5 L 6 -5.875 L 6 0 L 3.640625 0 L 3.640625 -22.328125 L 6 -22.328125 L 6 -8.84375 L 19.109375 -22.328125 L 21.828125 -22.328125 L 12.15625 -12.21875 L 22.5 0 L 19.6875 0 Z M 10.5625 -10.5 "/></g></g></g><g fill="#000000" fill-opacity="1"><g transform="translate(867.778854, 479.696027)"><g><path d="M 3.640625 -22.328125 L 6 -22.328125 L 6 0 L 3.640625 0 Z M 3.640625 -22.328125 "/></g></g></g><g fill="#000000" fill-opacity="1"><g transform="translate(902.943438, 479.696027)"><g><path d="M 22.296875 -22.328125 L 22.296875 0 L 20.359375 0 L 6 -18.125 L 6 0 L 3.640625 0 L 3.640625 -22.328125 L 5.578125 -22.328125 L 19.96875 -4.21875 L 19.96875 -22.328125 Z M 22.296875 -22.328125 "/></g></g></g></svg>